<?xml version="1.0" encoding="UTF-8" standalone="no"?>
<!DOCTYPE svg PUBLIC "-//W3C//DTD SVG 1.1//EN"
 "http://www.w3.org/Graphics/SVG/1.1/DTD/svg11.dtd">
<!-- Generated by graphviz version 2.47.3 (20210619.1520)
 -->
<!-- Title: dependencies Pages: 1 -->
<svg width="2051pt" height="247pt"
 viewBox="0.00 0.00 2051.00 246.80" xmlns="http://www.w3.org/2000/svg" xmlns:xlink="http://www.w3.org/1999/xlink">
<g id="graph0" class="graph" transform="scale(1 1) rotate(0) translate(4 242.8)">
<title>dependencies</title>
<polygon fill="white" stroke="transparent" points="-4,4 -4,-242.8 2047,-242.8 2047,4 -4,4"/>
<text text-anchor="middle" x="1021.5" y="-8.2" font-family="sans-serif" font-size="14.00">dependencies</text>
<g id="clust1" class="cluster">
<title>cluster_AppModule</title>
<polygon fill="none" stroke="black" stroke-dasharray="1,5" points="8,-32.8 8,-230.8 2035,-230.8 2035,-32.8 8,-32.8"/>
</g>
<g id="clust16" class="cluster">
<title>cluster_AppModule_imports</title>
<polygon fill="none" stroke="black" points="1883,-40.8 1883,-92.8 2027,-92.8 2027,-40.8 1883,-40.8"/>
</g>
<g id="clust18" class="cluster">
<title>cluster_AppModule_bootstrap</title>
<polygon fill="none" stroke="black" points="927,-170.8 927,-222.8 1051,-222.8 1051,-170.8 927,-170.8"/>
</g>
<g id="clust2" class="cluster">
<title>cluster_AppModule_declarations</title>
<polygon fill="none" stroke="black" points="16,-40.8 16,-92.8 1875,-92.8 1875,-40.8 16,-40.8"/>
</g>
<!-- AlertaComponent -->
<g id="node1" class="node">
<title>AlertaComponent</title>
<polygon fill="#ffffb3" stroke="black" points="1867.31,-84.8 1750.69,-84.8 1750.69,-48.8 1867.31,-48.8 1867.31,-84.8"/>
<text text-anchor="middle" x="1809" y="-62.6" font-family="Times,serif" font-size="14.00">AlertaComponent</text>
</g>
<!-- AppModule -->
<g id="node14" class="node">
<title>AppModule</title>
<polygon fill="#8dd3c7" stroke="black" points="1030.66,-149.8 1027.66,-153.8 1006.66,-153.8 1003.66,-149.8 947.34,-149.8 947.34,-113.8 1030.66,-113.8 1030.66,-149.8"/>
<text text-anchor="middle" x="989" y="-127.6" font-family="Times,serif" font-size="14.00">AppModule</text>
</g>
<!-- AlertaComponent&#45;&gt;AppModule -->
<g id="edge1" class="edge">
<title>AlertaComponent&#45;&gt;AppModule</title>
<path fill="none" stroke="black" d="M1809,-84.84C1809,-106.46 1809,-139.8 1809,-139.8 1809,-139.8 1040.79,-139.8 1040.79,-139.8"/>
<polygon fill="black" stroke="black" points="1040.79,-136.3 1030.79,-139.8 1040.79,-143.3 1040.79,-136.3"/>
</g>
<!-- AppComponent -->
<g id="node2" class="node">
<title>AppComponent</title>
<polygon fill="#ffffb3" stroke="black" points="1732.94,-84.8 1627.06,-84.8 1627.06,-48.8 1732.94,-48.8 1732.94,-84.8"/>
<text text-anchor="middle" x="1680" y="-62.6" font-family="Times,serif" font-size="14.00">AppComponent</text>
</g>
<!-- AppComponent&#45;&gt;AppModule -->
<g id="edge2" class="edge">
<title>AppComponent&#45;&gt;AppModule</title>
<path fill="none" stroke="black" d="M1680,-85.02C1680,-105.17 1680,-134.8 1680,-134.8 1680,-134.8 1040.67,-134.8 1040.67,-134.8"/>
<polygon fill="black" stroke="black" points="1040.67,-131.3 1030.67,-134.8 1040.67,-138.3 1040.67,-131.3"/>
</g>
<!-- CadastrarComponent -->
<g id="node3" class="node">
<title>CadastrarComponent</title>
<polygon fill="#ffffb3" stroke="black" points="1609.47,-84.8 1474.53,-84.8 1474.53,-48.8 1609.47,-48.8 1609.47,-84.8"/>
<text text-anchor="middle" x="1542" y="-62.6" font-family="Times,serif" font-size="14.00">CadastrarComponent</text>
</g>
<!-- CadastrarComponent&#45;&gt;AppModule -->
<g id="edge3" class="edge">
<title>CadastrarComponent&#45;&gt;AppModule</title>
<path fill="none" stroke="black" d="M1542,-85.02C1542,-103.63 1542,-129.8 1542,-129.8 1542,-129.8 1041.02,-129.8 1041.02,-129.8"/>
<polygon fill="black" stroke="black" points="1041.02,-126.3 1031.02,-129.8 1041.02,-133.3 1041.02,-126.3"/>
</g>
<!-- DeletePostComponent -->
<g id="node4" class="node">
<title>DeletePostComponent</title>
<polygon fill="#ffffb3" stroke="black" points="1456.98,-84.8 1315.02,-84.8 1315.02,-48.8 1456.98,-48.8 1456.98,-84.8"/>
<text text-anchor="middle" x="1386" y="-62.6" font-family="Times,serif" font-size="14.00">DeletePostComponent</text>
</g>
<!-- DeletePostComponent&#45;&gt;AppModule -->
<g id="edge4" class="edge">
<title>DeletePostComponent&#45;&gt;AppModule</title>
<path fill="none" stroke="black" d="M1386,-84.83C1386,-101.86 1386,-124.8 1386,-124.8 1386,-124.8 1040.74,-124.8 1040.74,-124.8"/>
<polygon fill="black" stroke="black" points="1040.74,-121.3 1030.74,-124.8 1040.74,-128.3 1040.74,-121.3"/>
</g>
<!-- DeleteTemaComponent -->
<g id="node5" class="node">
<title>DeleteTemaComponent</title>
<polygon fill="#ffffb3" stroke="black" points="1296.74,-84.8 1147.26,-84.8 1147.26,-48.8 1296.74,-48.8 1296.74,-84.8"/>
<text text-anchor="middle" x="1222" y="-62.6" font-family="Times,serif" font-size="14.00">DeleteTemaComponent</text>
</g>
<!-- DeleteTemaComponent&#45;&gt;AppModule -->
<g id="edge5" class="edge">
<title>DeleteTemaComponent&#45;&gt;AppModule</title>
<path fill="none" stroke="black" d="M1222,-85.04C1222,-100.37 1222,-119.8 1222,-119.8 1222,-119.8 1040.92,-119.8 1040.92,-119.8"/>
<polygon fill="black" stroke="black" points="1040.92,-116.3 1030.92,-119.8 1040.92,-123.3 1040.92,-116.3"/>
</g>
<!-- EditPostComponent -->
<g id="node6" class="node">
<title>EditPostComponent</title>
<polygon fill="#ffffb3" stroke="black" points="1129.28,-84.8 1000.72,-84.8 1000.72,-48.8 1129.28,-48.8 1129.28,-84.8"/>
<text text-anchor="middle" x="1065" y="-62.6" font-family="Times,serif" font-size="14.00">EditPostComponent</text>
</g>
<!-- EditPostComponent&#45;&gt;AppModule -->
<g id="edge6" class="edge">
<title>EditPostComponent&#45;&gt;AppModule</title>
<path fill="none" stroke="black" d="M1015.72,-84.91C1015.72,-84.91 1015.72,-103.79 1015.72,-103.79"/>
<polygon fill="black" stroke="black" points="1012.22,-103.79 1015.72,-113.79 1019.22,-103.79 1012.22,-103.79"/>
</g>
<!-- EditTemaComponent -->
<g id="node7" class="node">
<title>EditTemaComponent</title>
<polygon fill="#ffffb3" stroke="black" points="982.04,-84.8 845.96,-84.8 845.96,-48.8 982.04,-48.8 982.04,-84.8"/>
<text text-anchor="middle" x="914" y="-62.6" font-family="Times,serif" font-size="14.00">EditTemaComponent</text>
</g>
<!-- EditTemaComponent&#45;&gt;AppModule -->
<g id="edge7" class="edge">
<title>EditTemaComponent&#45;&gt;AppModule</title>
<path fill="none" stroke="black" d="M964.72,-84.91C964.72,-84.91 964.72,-103.79 964.72,-103.79"/>
<polygon fill="black" stroke="black" points="961.22,-103.79 964.72,-113.79 968.22,-103.79 961.22,-103.79"/>
</g>
<!-- EditUserComponent -->
<g id="node8" class="node">
<title>EditUserComponent</title>
<polygon fill="#ffffb3" stroke="black" points="827.59,-84.8 696.41,-84.8 696.41,-48.8 827.59,-48.8 827.59,-84.8"/>
<text text-anchor="middle" x="762" y="-62.6" font-family="Times,serif" font-size="14.00">EditUserComponent</text>
</g>
<!-- EditUserComponent&#45;&gt;AppModule -->
<g id="edge8" class="edge">
<title>EditUserComponent&#45;&gt;AppModule</title>
<path fill="none" stroke="black" d="M762,-85.04C762,-100.37 762,-119.8 762,-119.8 762,-119.8 937.1,-119.8 937.1,-119.8"/>
<polygon fill="black" stroke="black" points="937.1,-123.3 947.1,-119.8 937.1,-116.3 937.1,-123.3"/>
</g>
<!-- EntrarComponent -->
<g id="node9" class="node">
<title>EntrarComponent</title>
<polygon fill="#ffffb3" stroke="black" points="678.31,-84.8 561.69,-84.8 561.69,-48.8 678.31,-48.8 678.31,-84.8"/>
<text text-anchor="middle" x="620" y="-62.6" font-family="Times,serif" font-size="14.00">EntrarComponent</text>
</g>
<!-- EntrarComponent&#45;&gt;AppModule -->
<g id="edge9" class="edge">
<title>EntrarComponent&#45;&gt;AppModule</title>
<path fill="none" stroke="black" d="M620,-84.83C620,-101.86 620,-124.8 620,-124.8 620,-124.8 937.03,-124.8 937.03,-124.8"/>
<polygon fill="black" stroke="black" points="937.03,-128.3 947.03,-124.8 937.03,-121.3 937.03,-128.3"/>
</g>
<!-- InicioComponent -->
<g id="node10" class="node">
<title>InicioComponent</title>
<polygon fill="#ffffb3" stroke="black" points="543.99,-84.8 430.01,-84.8 430.01,-48.8 543.99,-48.8 543.99,-84.8"/>
<text text-anchor="middle" x="487" y="-62.6" font-family="Times,serif" font-size="14.00">InicioComponent</text>
</g>
<!-- InicioComponent&#45;&gt;AppModule -->
<g id="edge10" class="edge">
<title>InicioComponent&#45;&gt;AppModule</title>
<path fill="none" stroke="black" d="M487,-85.02C487,-103.63 487,-129.8 487,-129.8 487,-129.8 937.06,-129.8 937.06,-129.8"/>
<polygon fill="black" stroke="black" points="937.06,-133.3 947.06,-129.8 937.06,-126.3 937.06,-133.3"/>
</g>
<!-- MenuComponent -->
<g id="node11" class="node">
<title>MenuComponent</title>
<polygon fill="#ffffb3" stroke="black" points="411.99,-84.8 298.01,-84.8 298.01,-48.8 411.99,-48.8 411.99,-84.8"/>
<text text-anchor="middle" x="355" y="-62.6" font-family="Times,serif" font-size="14.00">MenuComponent</text>
</g>
<!-- MenuComponent&#45;&gt;AppModule -->
<g id="edge11" class="edge">
<title>MenuComponent&#45;&gt;AppModule</title>
<path fill="none" stroke="black" d="M355,-85.02C355,-105.17 355,-134.8 355,-134.8 355,-134.8 936.91,-134.8 936.91,-134.8"/>
<polygon fill="black" stroke="black" points="936.91,-138.3 946.91,-134.8 936.91,-131.3 936.91,-138.3"/>
</g>
<!-- RodapeComponent -->
<g id="node12" class="node">
<title>RodapeComponent</title>
<polygon fill="#ffffb3" stroke="black" points="280.1,-84.8 155.9,-84.8 155.9,-48.8 280.1,-48.8 280.1,-84.8"/>
<text text-anchor="middle" x="218" y="-62.6" font-family="Times,serif" font-size="14.00">RodapeComponent</text>
</g>
<!-- RodapeComponent&#45;&gt;AppModule -->
<g id="edge12" class="edge">
<title>RodapeComponent&#45;&gt;AppModule</title>
<path fill="none" stroke="black" d="M218,-84.84C218,-106.46 218,-139.8 218,-139.8 218,-139.8 937.27,-139.8 937.27,-139.8"/>
<polygon fill="black" stroke="black" points="937.27,-143.3 947.27,-139.8 937.27,-136.3 937.27,-143.3"/>
</g>
<!-- TemaComponent -->
<g id="node13" class="node">
<title>TemaComponent</title>
<polygon fill="#ffffb3" stroke="black" points="137.7,-84.8 24.3,-84.8 24.3,-48.8 137.7,-48.8 137.7,-84.8"/>
<text text-anchor="middle" x="81" y="-62.6" font-family="Times,serif" font-size="14.00">TemaComponent</text>
</g>
<!-- TemaComponent&#45;&gt;AppModule -->
<g id="edge13" class="edge">
<title>TemaComponent&#45;&gt;AppModule</title>
<path fill="none" stroke="black" d="M81,-84.89C81,-107.93 81,-144.8 81,-144.8 81,-144.8 937.33,-144.8 937.33,-144.8"/>
<polygon fill="black" stroke="black" points="937.33,-148.3 947.33,-144.8 937.33,-141.3 937.33,-148.3"/>
</g>
<!-- AppComponent  -->
<g id="node16" class="node">
<title>AppComponent </title>
<polygon fill="#80b1d3" stroke="black" points="1043.44,-214.8 934.56,-214.8 934.56,-178.8 1043.44,-178.8 1043.44,-214.8"/>
<text text-anchor="middle" x="989" y="-192.6" font-family="Times,serif" font-size="14.00">AppComponent </text>
</g>
<!-- AppModule&#45;&gt;AppComponent  -->
<g id="edge15" class="edge">
<title>AppModule&#45;&gt;AppComponent </title>
<path fill="none" stroke="black" stroke-dasharray="1,5" d="M989,-149.91C989,-149.91 989,-168.79 989,-168.79"/>
<polygon fill="black" stroke="black" points="985.5,-168.79 989,-178.79 992.5,-168.79 985.5,-168.79"/>
</g>
<!-- AppRoutingModule -->
<g id="node15" class="node">
<title>AppRoutingModule</title>
<polygon fill="#8dd3c7" stroke="black" points="2019.27,-84.8 2016.27,-88.8 1995.27,-88.8 1992.27,-84.8 1890.73,-84.8 1890.73,-48.8 2019.27,-48.8 2019.27,-84.8"/>
<text text-anchor="middle" x="1955" y="-62.6" font-family="Times,serif" font-size="14.00">AppRoutingModule</text>
</g>
<!-- AppRoutingModule&#45;&gt;AppModule -->
<g id="edge14" class="edge">
<title>AppRoutingModule&#45;&gt;AppModule</title>
<path fill="none" stroke="black" d="M1955,-84.89C1955,-107.93 1955,-144.8 1955,-144.8 1955,-144.8 1040.82,-144.8 1040.82,-144.8"/>
<polygon fill="black" stroke="black" points="1040.82,-141.3 1030.82,-144.8 1040.82,-148.3 1040.82,-141.3"/>
</g>
</g>
</svg>
