<?xml version="1.0" encoding="UTF-8" standalone="no"?>
<!DOCTYPE svg PUBLIC "-//W3C//DTD SVG 1.1//EN"
 "http://www.w3.org/Graphics/SVG/1.1/DTD/svg11.dtd">
<!-- Generated by graphviz version 2.47.3 (20210619.1520)
 -->
<!-- Title: dependencies Pages: 1 -->
<svg width="2051pt" height="247pt"
 viewBox="0.00 0.00 2051.00 246.80" xmlns="http://www.w3.org/2000/svg" xmlns:xlink="http://www.w3.org/1999/xlink">
<g id="graph0" class="graph" transform="scale(1 1) rotate(0) translate(4 242.8)">
<title>dependencies</title>
<polygon fill="white" stroke="transparent" points="-4,4 -4,-242.8 2047,-242.8 2047,4 -4,4"/>
<text text-anchor="middle" x="1021.5" y="-8.2" font-family="sans-serif" font-size="14.00">dependencies</text>
<g id="clust1" class="cluster">
<title>cluster_AppModule</title>
<polygon fill="none" stroke="black" stroke-dasharray="1,5" points="8,-32.8 8,-230.8 2035,-230.8 2035,-32.8 8,-32.8"/>
</g>
<g id="clust2" class="cluster">
<title>cluster_AppModule_declarations</title>
<polygon fill="none" stroke="black" points="168,-40.8 168,-92.8 2027,-92.8 2027,-40.8 168,-40.8"/>
</g>
<g id="clust16" class="cluster">
<title>cluster_AppModule_imports</title>
<polygon fill="none" stroke="black" points="16,-40.8 16,-92.8 160,-92.8 160,-40.8 16,-40.8"/>
</g>
<g id="clust18" class="cluster">
<title>cluster_AppModule_bootstrap</title>
<polygon fill="none" stroke="black" points="928,-170.8 928,-222.8 1052,-222.8 1052,-170.8 928,-170.8"/>
</g>
<!-- AlertaComponent -->
<g id="node1" class="node">
<title>AlertaComponent</title>
<polygon fill="#ffffb3" stroke="black" points="2019.31,-84.8 1902.69,-84.8 1902.69,-48.8 2019.31,-48.8 2019.31,-84.8"/>
<text text-anchor="middle" x="1961" y="-62.6" font-family="Times,serif" font-size="14.00">AlertaComponent</text>
</g>
<!-- AppModule -->
<g id="node14" class="node">
<title>AppModule</title>
<polygon fill="#8dd3c7" stroke="black" points="1031.66,-149.8 1028.66,-153.8 1007.66,-153.8 1004.66,-149.8 948.34,-149.8 948.34,-113.8 1031.66,-113.8 1031.66,-149.8"/>
<text text-anchor="middle" x="990" y="-127.6" font-family="Times,serif" font-size="14.00">AppModule</text>
</g>
<!-- AlertaComponent&#45;&gt;AppModule -->
<g id="edge1" class="edge">
<title>AlertaComponent&#45;&gt;AppModule</title>
<path fill="none" stroke="black" d="M1961,-84.89C1961,-107.93 1961,-144.8 1961,-144.8 1961,-144.8 1041.72,-144.8 1041.72,-144.8"/>
<polygon fill="black" stroke="black" points="1041.72,-141.3 1031.72,-144.8 1041.72,-148.3 1041.72,-141.3"/>
</g>
<!-- AppComponent -->
<g id="node2" class="node">
<title>AppComponent</title>
<polygon fill="#ffffb3" stroke="black" points="1884.94,-84.8 1779.06,-84.8 1779.06,-48.8 1884.94,-48.8 1884.94,-84.8"/>
<text text-anchor="middle" x="1832" y="-62.6" font-family="Times,serif" font-size="14.00">AppComponent</text>
</g>
<!-- AppComponent&#45;&gt;AppModule -->
<g id="edge2" class="edge">
<title>AppComponent&#45;&gt;AppModule</title>
<path fill="none" stroke="black" d="M1832,-84.84C1832,-106.46 1832,-139.8 1832,-139.8 1832,-139.8 1041.75,-139.8 1041.75,-139.8"/>
<polygon fill="black" stroke="black" points="1041.75,-136.3 1031.75,-139.8 1041.75,-143.3 1041.75,-136.3"/>
</g>
<!-- CadastrarComponent -->
<g id="node3" class="node">
<title>CadastrarComponent</title>
<polygon fill="#ffffb3" stroke="black" points="1761.47,-84.8 1626.53,-84.8 1626.53,-48.8 1761.47,-48.8 1761.47,-84.8"/>
<text text-anchor="middle" x="1694" y="-62.6" font-family="Times,serif" font-size="14.00">CadastrarComponent</text>
</g>
<!-- CadastrarComponent&#45;&gt;AppModule -->
<g id="edge3" class="edge">
<title>CadastrarComponent&#45;&gt;AppModule</title>
<path fill="none" stroke="black" d="M1694,-85.02C1694,-105.17 1694,-134.8 1694,-134.8 1694,-134.8 1041.67,-134.8 1041.67,-134.8"/>
<polygon fill="black" stroke="black" points="1041.67,-131.3 1031.67,-134.8 1041.67,-138.3 1041.67,-131.3"/>
</g>
<!-- DeletePostComponent -->
<g id="node4" class="node">
<title>DeletePostComponent</title>
<polygon fill="#ffffb3" stroke="black" points="1608.98,-84.8 1467.02,-84.8 1467.02,-48.8 1608.98,-48.8 1608.98,-84.8"/>
<text text-anchor="middle" x="1538" y="-62.6" font-family="Times,serif" font-size="14.00">DeletePostComponent</text>
</g>
<!-- DeletePostComponent&#45;&gt;AppModule -->
<g id="edge4" class="edge">
<title>DeletePostComponent&#45;&gt;AppModule</title>
<path fill="none" stroke="black" d="M1538,-85.02C1538,-103.63 1538,-129.8 1538,-129.8 1538,-129.8 1042.09,-129.8 1042.09,-129.8"/>
<polygon fill="black" stroke="black" points="1042.09,-126.3 1032.09,-129.8 1042.09,-133.3 1042.09,-126.3"/>
</g>
<!-- DeleteTemaComponent -->
<g id="node5" class="node">
<title>DeleteTemaComponent</title>
<polygon fill="#ffffb3" stroke="black" points="1448.74,-84.8 1299.26,-84.8 1299.26,-48.8 1448.74,-48.8 1448.74,-84.8"/>
<text text-anchor="middle" x="1374" y="-62.6" font-family="Times,serif" font-size="14.00">DeleteTemaComponent</text>
</g>
<!-- DeleteTemaComponent&#45;&gt;AppModule -->
<g id="edge5" class="edge">
<title>DeleteTemaComponent&#45;&gt;AppModule</title>
<path fill="none" stroke="black" d="M1374,-84.83C1374,-101.86 1374,-124.8 1374,-124.8 1374,-124.8 1041.83,-124.8 1041.83,-124.8"/>
<polygon fill="black" stroke="black" points="1041.83,-121.3 1031.83,-124.8 1041.83,-128.3 1041.83,-121.3"/>
</g>
<!-- EditPostComponent -->
<g id="node6" class="node">
<title>EditPostComponent</title>
<polygon fill="#ffffb3" stroke="black" points="1281.28,-84.8 1152.72,-84.8 1152.72,-48.8 1281.28,-48.8 1281.28,-84.8"/>
<text text-anchor="middle" x="1217" y="-62.6" font-family="Times,serif" font-size="14.00">EditPostComponent</text>
</g>
<!-- EditPostComponent&#45;&gt;AppModule -->
<g id="edge6" class="edge">
<title>EditPostComponent&#45;&gt;AppModule</title>
<path fill="none" stroke="black" d="M1217,-85.04C1217,-100.37 1217,-119.8 1217,-119.8 1217,-119.8 1041.9,-119.8 1041.9,-119.8"/>
<polygon fill="black" stroke="black" points="1041.9,-116.3 1031.9,-119.8 1041.9,-123.3 1041.9,-116.3"/>
</g>
<!-- EditTemaComponent -->
<g id="node7" class="node">
<title>EditTemaComponent</title>
<polygon fill="#ffffb3" stroke="black" points="1134.04,-84.8 997.96,-84.8 997.96,-48.8 1134.04,-48.8 1134.04,-84.8"/>
<text text-anchor="middle" x="1066" y="-62.6" font-family="Times,serif" font-size="14.00">EditTemaComponent</text>
</g>
<!-- EditTemaComponent&#45;&gt;AppModule -->
<g id="edge7" class="edge">
<title>EditTemaComponent&#45;&gt;AppModule</title>
<path fill="none" stroke="black" d="M1014.78,-84.91C1014.78,-84.91 1014.78,-103.79 1014.78,-103.79"/>
<polygon fill="black" stroke="black" points="1011.28,-103.79 1014.78,-113.79 1018.28,-103.79 1011.28,-103.79"/>
</g>
<!-- EditUserComponent -->
<g id="node8" class="node">
<title>EditUserComponent</title>
<polygon fill="#ffffb3" stroke="black" points="979.59,-84.8 848.41,-84.8 848.41,-48.8 979.59,-48.8 979.59,-84.8"/>
<text text-anchor="middle" x="914" y="-62.6" font-family="Times,serif" font-size="14.00">EditUserComponent</text>
</g>
<!-- EditUserComponent&#45;&gt;AppModule -->
<g id="edge8" class="edge">
<title>EditUserComponent&#45;&gt;AppModule</title>
<path fill="none" stroke="black" d="M963.86,-84.91C963.86,-84.91 963.86,-103.79 963.86,-103.79"/>
<polygon fill="black" stroke="black" points="960.36,-103.79 963.86,-113.79 967.36,-103.79 960.36,-103.79"/>
</g>
<!-- EntrarComponent -->
<g id="node9" class="node">
<title>EntrarComponent</title>
<polygon fill="#ffffb3" stroke="black" points="830.31,-84.8 713.69,-84.8 713.69,-48.8 830.31,-48.8 830.31,-84.8"/>
<text text-anchor="middle" x="772" y="-62.6" font-family="Times,serif" font-size="14.00">EntrarComponent</text>
</g>
<!-- EntrarComponent&#45;&gt;AppModule -->
<g id="edge9" class="edge">
<title>EntrarComponent&#45;&gt;AppModule</title>
<path fill="none" stroke="black" d="M772,-85.04C772,-100.37 772,-119.8 772,-119.8 772,-119.8 938.23,-119.8 938.23,-119.8"/>
<polygon fill="black" stroke="black" points="938.23,-123.3 948.23,-119.8 938.23,-116.3 938.23,-123.3"/>
</g>
<!-- InicioComponent -->
<g id="node10" class="node">
<title>InicioComponent</title>
<polygon fill="#ffffb3" stroke="black" points="695.99,-84.8 582.01,-84.8 582.01,-48.8 695.99,-48.8 695.99,-84.8"/>
<text text-anchor="middle" x="639" y="-62.6" font-family="Times,serif" font-size="14.00">InicioComponent</text>
</g>
<!-- InicioComponent&#45;&gt;AppModule -->
<g id="edge10" class="edge">
<title>InicioComponent&#45;&gt;AppModule</title>
<path fill="none" stroke="black" d="M639,-84.83C639,-101.86 639,-124.8 639,-124.8 639,-124.8 938.01,-124.8 938.01,-124.8"/>
<polygon fill="black" stroke="black" points="938.01,-128.3 948.01,-124.8 938.01,-121.3 938.01,-128.3"/>
</g>
<!-- MenuComponent -->
<g id="node11" class="node">
<title>MenuComponent</title>
<polygon fill="#ffffb3" stroke="black" points="563.99,-84.8 450.01,-84.8 450.01,-48.8 563.99,-48.8 563.99,-84.8"/>
<text text-anchor="middle" x="507" y="-62.6" font-family="Times,serif" font-size="14.00">MenuComponent</text>
</g>
<!-- MenuComponent&#45;&gt;AppModule -->
<g id="edge11" class="edge">
<title>MenuComponent&#45;&gt;AppModule</title>
<path fill="none" stroke="black" d="M507,-85.02C507,-103.63 507,-129.8 507,-129.8 507,-129.8 937.98,-129.8 937.98,-129.8"/>
<polygon fill="black" stroke="black" points="937.98,-133.3 947.98,-129.8 937.98,-126.3 937.98,-133.3"/>
</g>
<!-- RodapeComponent -->
<g id="node12" class="node">
<title>RodapeComponent</title>
<polygon fill="#ffffb3" stroke="black" points="432.1,-84.8 307.9,-84.8 307.9,-48.8 432.1,-48.8 432.1,-84.8"/>
<text text-anchor="middle" x="370" y="-62.6" font-family="Times,serif" font-size="14.00">RodapeComponent</text>
</g>
<!-- RodapeComponent&#45;&gt;AppModule -->
<g id="edge12" class="edge">
<title>RodapeComponent&#45;&gt;AppModule</title>
<path fill="none" stroke="black" d="M370,-85.02C370,-105.17 370,-134.8 370,-134.8 370,-134.8 937.87,-134.8 937.87,-134.8"/>
<polygon fill="black" stroke="black" points="937.87,-138.3 947.87,-134.8 937.87,-131.3 937.87,-138.3"/>
</g>
<!-- TemaComponent -->
<g id="node13" class="node">
<title>TemaComponent</title>
<polygon fill="#ffffb3" stroke="black" points="289.7,-84.8 176.3,-84.8 176.3,-48.8 289.7,-48.8 289.7,-84.8"/>
<text text-anchor="middle" x="233" y="-62.6" font-family="Times,serif" font-size="14.00">TemaComponent</text>
</g>
<!-- TemaComponent&#45;&gt;AppModule -->
<g id="edge13" class="edge">
<title>TemaComponent&#45;&gt;AppModule</title>
<path fill="none" stroke="black" d="M233,-84.84C233,-106.46 233,-139.8 233,-139.8 233,-139.8 938.22,-139.8 938.22,-139.8"/>
<polygon fill="black" stroke="black" points="938.22,-143.3 948.22,-139.8 938.22,-136.3 938.22,-143.3"/>
</g>
<!-- AppComponent  -->
<g id="node16" class="node">
<title>AppComponent </title>
<polygon fill="#80b1d3" stroke="black" points="1044.44,-214.8 935.56,-214.8 935.56,-178.8 1044.44,-178.8 1044.44,-214.8"/>
<text text-anchor="middle" x="990" y="-192.6" font-family="Times,serif" font-size="14.00">AppComponent </text>
</g>
<!-- AppModule&#45;&gt;AppComponent  -->
<g id="edge15" class="edge">
<title>AppModule&#45;&gt;AppComponent </title>
<path fill="none" stroke="black" stroke-dasharray="1,5" d="M990,-149.91C990,-149.91 990,-168.79 990,-168.79"/>
<polygon fill="black" stroke="black" points="986.5,-168.79 990,-178.79 993.5,-168.79 986.5,-168.79"/>
</g>
<!-- AppRoutingModule -->
<g id="node15" class="node">
<title>AppRoutingModule</title>
<polygon fill="#8dd3c7" stroke="black" points="152.27,-84.8 149.27,-88.8 128.27,-88.8 125.27,-84.8 23.73,-84.8 23.73,-48.8 152.27,-48.8 152.27,-84.8"/>
<text text-anchor="middle" x="88" y="-62.6" font-family="Times,serif" font-size="14.00">AppRoutingModule</text>
</g>
<!-- AppRoutingModule&#45;&gt;AppModule -->
<g id="edge14" class="edge">
<title>AppRoutingModule&#45;&gt;AppModule</title>
<path fill="none" stroke="black" d="M88,-84.89C88,-107.93 88,-144.8 88,-144.8 88,-144.8 938.3,-144.8 938.3,-144.8"/>
<polygon fill="black" stroke="black" points="938.3,-148.3 948.3,-144.8 938.3,-141.3 938.3,-148.3"/>
</g>
</g>
</svg>
